<svg xmlns="http://www.w3.org/2000/svg" width="1200" height="800" viewBox="0 0 317.5 211.66667"><path fill="#fff" d="M0 0h317.5v211.667H0z" style="stroke-width:.264583"/><g clip-rule="evenodd" image-rendering="optimizeQuality" shape-rendering="geometricPrecision" text-rendering="geometricPrecision"><path fill="#008c95" d="M163.64 34.438c.325 5.382-1.958 7.094-5.22 7.42-2.853 0-4.565.734-5.951 2.283l-15.737 27.07c8.725.408 17.204 3.588 24.461 14.025 4.077 5.789 11.17 10.763 24.543 13.29-9.866 2.202-16.878-1.957-28.457-5.626-9.295-2.854-23.564-4.077-33.267.408l-18.1 31.147c12.393-10.274 34.652-12.965 50.47-6.93 18.265 6.93 35.958 8.968 55.364-.98l-13.29-22.422c-2.284 1.876-4.567 2.854-6.931 3.18l2.527-17.938c-8.072.897-15.084-1.06-20.302-7.012-7.665-8.97-15.084-15.655-22.423-17.204 1.876-3.833 5.708-3.262 10.437-1.631 3.424 1.06 9.458-.245 10.763-4.24l-8.725-14.758z"/><path fill="#fc4c02" d="M139.668 72.598c4.81 0 8.642 3.832 8.724 8.642 0 4.73-3.832 8.643-8.643 8.643-4.73 0-8.643-3.832-8.643-8.561a8.7 8.7 0 0 1 8.562-8.724"/><path fill="#555" fill-rule="evenodd" d="M218.074 150.59a1.328 1.328 0 0 0-2.359 0l-8.16 13.452 3.315 1.912 5.929-9.882 5.93 9.882 3.378-1.912Zm-25.31.892c-1.403-1.976-3.826-3.315-6.631-3.315-4.272 0-7.842 3.251-7.842 7.204 0 4.017 3.57 7.268 7.842 7.268 1.976 0 3.698-.701 5.1-1.785h7.715v4.782h3.952v-16.194h-3.952v2.04zm.764 6.375c.383-1.083.574-2.231.383-3.379h5.037v3.38zm-7.395-6.375c2.167 0 3.953 1.721 3.953 3.889s-1.786 3.889-3.953 3.889c-2.168 0-3.953-1.721-3.953-3.889s1.785-3.89 3.953-3.89m-23.526 17.341c2.168 0 3.953 1.722 3.953 3.89 0 2.103-1.785 3.888-3.953 3.888-2.167 0-3.953-1.785-3.953-3.889 0-2.167 1.786-3.889 3.953-3.889m0-3.379c-4.335 0-7.842 3.252-7.842 7.268 0 3.953 3.507 7.205 7.842 7.205 4.272 0 7.842-3.252 7.842-7.205 0-1.594-.574-3.06-1.53-4.271h2.741v-8.416h3.89v-2.996h-3.89v-7.587h-3.889v11.922h-3.506v-11.922h-16.258v2.996h12.305v8.926h-3.762v-4.463h-3.889v4.463h-5.164v2.996h20.274v2.87c-1.402-1.084-3.187-1.786-5.164-1.786m-77.335-6.184h7.268a6.6 6.6 0 0 1-1.275-3.889c0-3.953 3.507-7.204 7.842-7.204 4.336 0 7.842 3.251 7.842 7.204a6.6 6.6 0 0 1-1.275 3.889h7.523v2.869h-11.986v2.295h9.5v8.416H91.52v2.423h19.19v2.996H87.63v-8.416h19.19v-2.422h-19.19v-2.997h9.627v-2.295H85.272zm13.835-7.778c-2.167 0-3.953 1.721-3.953 3.889s1.786 3.889 3.953 3.889c2.168 0 3.953-1.721 3.953-3.889s-1.785-3.89-3.953-3.89m27.287-.893c-.573-.956-1.849-.956-2.422 0l-8.161 13.453 3.379 1.912 5.93-9.882 5.928 9.882 3.316-1.912Zm72.554 19.828h-15.493v-2.996H202.9v10.838h-3.952zm-75.614 4.846h17.278v2.996h-21.167v-10.838h3.89zm17.278-17.724v-8.097h-3.89v20.593h3.89v-9.5h3.825v-2.996zm87.727-8.097h3.889v28.817h-3.89z"/></g></svg>