<svg width="20" height="23" viewBox="0 0 20 23" fill="none" xmlns="http://www.w3.org/2000/svg">
<g clip-path="url(#clip0_355_5343)">
<path d="M15 11.17C14.491 10.2315 13.5267 9.62907 12.46 9.58333C11.1766 9.52679 9.89213 9.49901 8.6075 9.5C7.2325 9.5 5.98417 9.52833 4.755 9.58333C3.29417 9.64667 2.09417 10.7392 1.89917 12.1342C1.77167 13.045 1.66667 13.9775 1.66667 14.9275C1.66667 15.8775 1.77167 16.8108 1.89917 17.7208C2.09417 19.1158 3.29417 20.2083 4.755 20.2733C5.35 20.2983 6.05 20.3183 6.66667 20.3333" stroke="#141B34" stroke-width="1.66505" stroke-linecap="round"/>
<path d="M5 9.5V7.41667C5 5.34699 6.68032 3.66667 8.75 3.66667C10.8197 3.66667 12.5 5.34699 12.5 7.41667V9.5" stroke="#141B34" stroke-width="1.66505" stroke-linecap="round" stroke-linejoin="round"/>
<path d="M17.6708 14.5867L17.1875 15.0808L17.67 14.5875M17.85 15.7308C18.1248 15.9808 18.548 15.9686 18.8081 15.7034C19.0681 15.4382 19.0719 15.0148 18.8167 14.745L17.85 15.7308M15.0192 14.5867L14.5358 14.095L15.0183 14.5858M15.1983 17.0333C15.4706 17.3001 15.9082 17.2956 16.175 17.0233C16.4418 16.7511 16.4373 16.3134 16.165 16.0467L15.1992 17.0333M11.8833 19.3017C11.4145 19.7568 10.6688 19.7568 10.2 19.3017L9.23167 20.2867C10.2378 21.2688 11.8438 21.2688 12.85 20.2867L11.8842 19.3017M10.2 19.3017C9.98096 19.0894 9.85732 18.7975 9.85732 18.4925C9.85732 18.1875 9.98096 17.8956 10.2 17.6833L9.23167 16.6983C8.7487 17.1704 8.47651 17.8173 8.47666 18.4927C8.47682 19.168 8.74931 19.8148 9.2325 20.2867L10.1992 19.3017M10.2 17.6833C10.6688 17.2282 11.4145 17.2282 11.8833 17.6833L12.8508 16.6983C11.8448 15.7167 10.2394 15.7167 9.23333 16.6983L10.1992 17.6833M11.8833 17.6833C12.1022 17.8957 12.2257 18.1876 12.2257 18.4925C12.2257 18.7974 12.1022 19.0893 11.8833 19.3017L12.8508 20.2867C13.3339 19.8147 13.6063 19.1679 13.6063 18.4925C13.6063 17.8171 13.3339 17.1703 12.8508 16.6983L11.8842 17.6833M17.1867 15.08L17.85 15.73L18.8167 14.7467L18.1542 14.0933L17.1875 15.08M12.8508 17.6833L14.84 15.7308L13.8725 14.745L11.8833 16.6983L12.8508 17.6833M14.84 15.7308L15.5025 15.08L14.5358 14.0942L13.8717 14.745L14.8392 15.7308M13.8725 15.7308L15.1975 17.0325L16.1667 16.0467L14.84 14.7458L13.8725 15.7308M18.1542 14.0942C17.8558 13.8017 17.5833 13.5317 17.3325 13.3442C17.0667 13.1442 16.7467 12.9767 16.345 12.9767V14.3567C16.3383 14.3742 16.3492 14.3567 16.3667 14.3633C16.3883 14.3717 16.4317 14.3942 16.505 14.4492C16.6633 14.5683 16.8608 14.7592 17.1867 15.08L18.1542 14.0942M15.5025 15.08C15.8292 14.7583 16.025 14.5683 16.185 14.4492C16.2275 14.4151 16.2739 14.3863 16.3233 14.3633C16.34 14.3558 16.3442 14.3567 16.345 14.3567V12.9767C15.9417 12.9767 15.6233 13.1442 15.3567 13.3442C15.1067 13.5317 14.8342 13.8017 14.535 14.0942L15.5025 15.08" fill="#141B34"/>
</g>
<defs>
<clipPath id="clip0_355_5343">
<rect width="20" height="23" fill="white"/>
</clipPath>
</defs>
</svg>
