<svg width="24" height="24" viewBox="0 0 24 24" fill="none" xmlns="http://www.w3.org/2000/svg">
<path fill-rule="evenodd" clip-rule="evenodd" d="M12 3.25C12.1989 3.25 12.3897 3.32902 12.5303 3.46967C12.671 3.61032 12.75 3.80109 12.75 4V20C12.75 20.1989 12.671 20.3897 12.5303 20.5303C12.3897 20.671 12.1989 20.75 12 20.75C11.8011 20.75 11.6103 20.671 11.4697 20.5303C11.329 20.3897 11.25 20.1989 11.25 20V4C11.25 3.80109 11.329 3.61032 11.4697 3.46967C11.6103 3.32902 11.8011 3.25 12 3.25ZM4 10.25C4.19891 10.25 4.38968 10.329 4.53033 10.4697C4.67098 10.6103 4.75 10.8011 4.75 11V13C4.75 13.1989 4.67098 13.3897 4.53033 13.5303C4.38968 13.671 4.19891 13.75 4 13.75C3.80109 13.75 3.61032 13.671 3.46967 13.5303C3.32902 13.3897 3.25 13.1989 3.25 13V11C3.25 10.8011 3.32902 10.6103 3.46967 10.4697C3.61032 10.329 3.80109 10.25 4 10.25ZM20 10.25C20.1989 10.25 20.3897 10.329 20.5303 10.4697C20.671 10.6103 20.75 10.8011 20.75 11V13C20.75 13.1989 20.671 13.3897 20.5303 13.5303C20.3897 13.671 20.1989 13.75 20 13.75C19.8011 13.75 19.6103 13.671 19.4697 13.5303C19.329 13.3897 19.25 13.1989 19.25 13V11C19.25 10.8011 19.329 10.6103 19.4697 10.4697C19.6103 10.329 19.8011 10.25 20 10.25Z" fill="black"/>
<path opacity="0.5" d="M16.75 7C16.75 6.80109 16.671 6.61032 16.5303 6.46967C16.3897 6.32902 16.1989 6.25 16 6.25C15.8011 6.25 15.6103 6.32902 15.4697 6.46967C15.329 6.61032 15.25 6.80109 15.25 7V17C15.25 17.1989 15.329 17.3897 15.4697 17.5303C15.6103 17.671 15.8011 17.75 16 17.75C16.1989 17.75 16.3897 17.671 16.5303 17.5303C16.671 17.3897 16.75 17.1989 16.75 17V7ZM8.75 7C8.75 6.80109 8.67098 6.61032 8.53033 6.46967C8.38968 6.32902 8.19891 6.25 8 6.25C7.80109 6.25 7.61032 6.32902 7.46967 6.46967C7.32902 6.61032 7.25 6.80109 7.25 7V17C7.25 17.1989 7.32902 17.3897 7.46967 17.5303C7.61032 17.671 7.80109 17.75 8 17.75C8.19891 17.75 8.38968 17.671 8.53033 17.5303C8.67098 17.3897 8.75 17.1989 8.75 17V7Z" fill="black"/>
</svg>
