<svg width="18" height="17" viewBox="0 0 18 17" fill="none" xmlns="http://www.w3.org/2000/svg">
<g clip-path="url(#clip0_335_4552)">
<path d="M13.5138 3.51621L17.5911 7.59355C17.8302 7.83262 17.9663 8.16133 17.9663 8.5C17.9663 8.83867 17.8302 9.16738 17.5911 9.40645L13.5138 13.4838C13.3013 13.6963 13.0157 13.8125 12.7169 13.8125C12.096 13.8125 11.5913 13.3078 11.5913 12.6869V10.625H7.34131C6.75361 10.625 6.27881 10.1502 6.27881 9.5625V7.4375C6.27881 6.8498 6.75361 6.375 7.34131 6.375H11.5913V4.31309C11.5913 3.69219 12.096 3.1875 12.7169 3.1875C13.0157 3.1875 13.3013 3.30703 13.5138 3.51621ZM6.27881 3.1875H4.15381C3.56611 3.1875 3.09131 3.6623 3.09131 4.25V12.75C3.09131 13.3377 3.56611 13.8125 4.15381 13.8125H6.27881C6.8665 13.8125 7.34131 14.2873 7.34131 14.875C7.34131 15.4627 6.8665 15.9375 6.27881 15.9375H4.15381C2.39404 15.9375 0.966309 14.5098 0.966309 12.75V4.25C0.966309 2.49023 2.39404 1.0625 4.15381 1.0625H6.27881C6.8665 1.0625 7.34131 1.5373 7.34131 2.125C7.34131 2.7127 6.8665 3.1875 6.27881 3.1875Z" fill="black"/>
</g>
<defs>
<clipPath id="clip0_335_4552">
<rect width="17" height="17" fill="white" transform="translate(0.966309)"/>
</clipPath>
</defs>
</svg>
